<?xml version="1.0" standalone="no"?>
<!DOCTYPE svg PUBLIC "-//W3C//DTD SVG 20010904//EN"
 "http://www.w3.org/TR/2001/REC-SVG-20010904/DTD/svg10.dtd">
<svg version="1.0" xmlns="http://www.w3.org/2000/svg"
 width="1755.000000pt" height="1755.000000pt" viewBox="0 0 1755.000000 1755.000000"
 preserveAspectRatio="xMidYMid meet">
<metadata>
Created by potrace 1.11, written by Peter Selinger 2001-2013
</metadata>
<g transform="translate(0.000000,1755.000000) scale(0.100000,-0.100000)"
fill="#000000" stroke="none">
<path d="M5989 12314 l-2049 -2049 0 -45 0 -45 142 -115 c280 -227 263 -211
236 -226 -12 -7 -39 -13 -58 -14 -19 0 -71 -14 -115 -31 -44 -17 -102 -39
-130 -49 -27 -10 -84 -32 -125 -48 -41 -16 -124 -48 -185 -71 -203 -78 -240
-93 -255 -106 -24 -20 -110 -55 -137 -55 -13 0 -160 -52 -326 -116 -166 -65
-358 -138 -427 -165 -69 -26 -190 -73 -270 -104 -80 -31 -167 -65 -195 -75
-27 -10 -86 -33 -130 -50 -44 -17 -102 -40 -130 -50 -27 -10 -84 -32 -125 -48
-41 -16 -129 -50 -195 -75 -66 -25 -174 -67 -240 -93 -66 -25 -190 -73 -275
-104 -201 -76 -248 -96 -287 -126 -45 -34 -44 -76 8 -217 61 -166 157 -426
238 -647 40 -107 92 -249 116 -315 24 -66 81 -219 125 -340 44 -121 101 -274
125 -340 24 -66 74 -201 110 -300 109 -301 84 -262 210 -325 61 -30 196 -94
300 -142 105 -48 273 -126 375 -173 202 -95 209 -98 515 -240 116 -54 242
-112 280 -130 39 -18 165 -77 280 -130 116 -54 242 -112 280 -130 39 -18 165
-77 280 -130 116 -54 242 -112 280 -130 81 -38 454 -211 565 -262 123 -57 468
-218 573 -267 55 -25 100 -46 102 -46 2 0 69 -32 150 -70 81 -39 148 -70 150
-70 1 0 60 -27 129 -60 70 -33 128 -60 130 -60 2 0 55 -24 117 -54 63 -29 204
-95 314 -146 110 -51 232 -107 270 -125 39 -18 165 -77 280 -130 116 -54 242
-112 280 -130 39 -18 165 -77 280 -130 116 -54 242 -112 280 -130 39 -18 165
-77 280 -130 116 -54 242 -112 280 -130 39 -18 162 -76 275 -128 113 -52 246
-114 295 -137 143 -67 175 -80 200 -80 13 0 116 45 228 100 112 55 207 100
210 100 4 0 98 45 211 100 112 55 206 100 209 100 4 0 89 40 190 90 102 49
187 90 190 90 4 0 89 41 190 90 102 50 187 90 191 90 3 0 97 45 210 100 112
55 206 100 210 100 3 0 89 41 190 90 101 50 186 90 190 90 3 0 97 45 210 100
112 55 206 100 209 100 4 0 89 40 190 90 102 49 187 90 190 90 4 0 89 41 190
90 102 50 187 90 190 90 3 0 98 45 210 100 112 55 207 100 210 100 3 0 98 45
210 100 112 55 207 100 210 100 4 0 89 41 190 90 102 50 187 90 190 90 4 0 89
41 190 90 102 50 187 90 190 90 3 0 98 45 210 100 112 55 207 100 210 100 4 0
89 41 190 90 102 50 187 90 190 90 3 0 93 43 200 95 107 52 197 95 201 95 3 0
93 43 199 95 107 52 197 95 200 95 3 0 89 40 190 90 101 49 187 90 190 90 21
0 282 138 293 155 12 19 14 148 12 858 l-3 835 -25 27 c-14 14 -41 34 -60 42
-19 9 -54 29 -77 45 -23 15 -44 28 -47 28 -3 0 -35 18 -71 40 -36 22 -67 40
-69 40 -2 0 -34 18 -70 40 -36 22 -68 40 -72 40 -3 0 -18 8 -32 18 -15 11 -52
32 -82 49 -30 17 -79 44 -108 62 -29 17 -55 31 -58 31 -3 0 -18 8 -32 18 -15
11 -52 32 -82 49 -30 17 -79 44 -108 62 -29 17 -55 31 -58 31 -3 0 -25 14 -49
30 -24 17 -46 30 -48 30 -3 0 -35 18 -71 40 -36 22 -67 40 -70 40 -2 0 -43 24
-92 53 l-89 53 2 210 c1 115 7 292 13 394 5 102 15 266 21 365 5 99 12 307 15
462 4 263 3 288 -16 365 -57 223 -150 389 -314 556 -97 100 -219 202 -241 202
-4 0 -20 9 -36 20 -61 44 -242 110 -367 135 -100 20 -367 20 -462 0 -244 -51
-445 -160 -621 -335 -146 -146 -225 -270 -305 -483 -37 -98 -63 -269 -64 -417
0 -41 -4 -81 -9 -88 -9 -15 -41 -3 -139 56 -29 18 -55 32 -58 32 -3 0 -25 14
-49 30 -24 17 -46 30 -49 30 -3 0 -35 18 -71 40 -36 22 -67 40 -70 40 -3 0
-34 18 -70 40 -36 22 -67 40 -70 40 -13 0 -105 65 -105 74 0 6 189 200 420
431 403 403 420 421 420 457 0 35 -29 78 -52 78 -5 0 -45 24 -91 54 -176 115
-288 186 -292 186 -4 0 -116 71 -292 186 -46 30 -85 54 -88 54 -4 0 -111 68
-292 186 -46 30 -85 54 -88 54 -4 0 -111 68 -292 186 -46 30 -85 54 -88 54 -4
0 -111 68 -292 186 -46 30 -85 54 -88 54 -4 0 -111 68 -292 186 -46 30 -85 54
-88 54 -4 0 -111 68 -292 186 -46 30 -85 54 -88 54 -2 0 -51 30 -107 66 -219
142 -262 169 -280 179 -31 17 -220 137 -295 187 -40 26 -74 48 -77 48 -3 0
-52 30 -108 66 -219 142 -262 169 -280 179 -31 17 -220 137 -295 187 -40 26
-75 48 -78 48 -3 0 -42 24 -88 54 -172 112 -288 186 -292 186 -2 0 -52 32
-112 72 -88 58 -117 72 -157 76 l-48 5 -2049 -2049z m2263 1050 c304 -218 557
-398 562 -400 6 -2 95 89 198 203 237 264 234 261 254 241 18 -18 33 0 -226
-287 l-174 -194 24 -20 c14 -10 149 -108 300 -216 151 -109 483 -347 737 -529
254 -182 466 -333 470 -334 5 -2 91 87 192 197 275 299 310 335 327 328 8 -3
14 -13 14 -22 0 -9 -108 -133 -240 -276 -132 -143 -240 -262 -240 -265 0 -3
353 -257 783 -566 594 -425 783 -566 785 -583 5 -29 -26 -64 -53 -58 -11 2
-372 257 -803 566 -430 309 -786 560 -791 557 -22 -14 -591 -642 -589 -651 1
-5 308 -242 683 -525 612 -463 683 -514 714 -512 31 2 33 0 27 -23 -5 -20 -3
-25 13 -25 11 0 33 -8 49 -17 27 -15 29 -21 25 -53 -11 -67 -49 -87 -96 -50
-14 11 -33 20 -43 20 -21 0 -153 61 -153 71 -1 4 9 9 21 13 20 5 21 7 8 19 -8
8 -220 169 -470 357 -250 189 -546 412 -657 497 l-202 153 -315 -343 c-294
-319 -314 -343 -298 -358 9 -9 349 -269 755 -578 597 -456 737 -567 737 -585
0 -29 -33 -60 -57 -54 -10 3 -353 260 -762 572 -409 312 -749 570 -755 572
-14 5 -669 -702 -664 -716 2 -5 323 -253 713 -550 447 -341 713 -550 719 -565
11 -28 -15 -65 -45 -65 -10 0 -343 248 -740 550 -397 303 -725 549 -729 548
-6 -2 -561 -604 -623 -675 -17 -20 -8 -28 703 -578 639 -494 720 -560 720
-584 0 -33 -16 -51 -46 -51 -13 0 -299 215 -744 559 l-722 559 -296 -321
c-162 -177 -300 -325 -305 -329 -16 -10 -37 2 -37 21 1 9 133 160 295 336 163
176 294 323 293 327 -2 4 -329 260 -728 568 l-724 561 -22 -23 c-12 -13 -128
-142 -259 -288 -279 -312 -282 -315 -301 -299 -8 6 -14 15 -14 20 0 5 124 146
276 315 231 255 274 308 263 318 -8 7 -281 220 -608 472 -326 252 -600 469
-608 481 -14 21 -14 26 1 49 12 17 24 24 41 22 13 -2 298 -216 634 -475 336
-260 614 -474 619 -475 13 -4 633 685 624 693 -4 4 -266 204 -582 444 -316
241 -587 449 -602 463 -46 43 -30 97 26 90 15 -2 279 -196 627 -462 442 -337
606 -457 616 -450 8 5 157 168 333 363 l319 354 -142 108 c-926 705 -1002 765
-1005 791 -3 28 20 58 46 58 12 0 995 -739 1158 -871 8 -7 108 98 317 328 167
186 304 343 303 348 0 6 -253 200 -561 433 -377 284 -563 431 -570 448 -8 22
-6 29 15 46 13 10 32 17 41 15 10 -3 273 -198 585 -433 312 -236 570 -427 573
-425 17 10 558 617 555 622 -2 3 -251 183 -554 400 -382 274 -552 401 -556
417 -8 27 20 62 48 62 10 0 267 -178 570 -396z m3558 -3087 c0 -1 -57 -58
-127 -127 -70 -69 -117 -112 -103 -95 14 16 28 31 33 33 4 2 7 12 7 22 0 10 5
22 11 25 6 5 4 16 -7 33 -9 14 -13 27 -8 29 7 3 169 72 192 82 1 1 2 0 2 -2z
m583 -283 c210 -136 387 -251 393 -258 8 -8 2 -131 -22 -456 -18 -245 -33
-505 -33 -579 -1 -74 -8 -253 -17 -399 -12 -206 -13 -286 -5 -364 33 -303 161
-563 377 -768 233 -222 513 -333 839 -334 157 -1 248 13 380 56 309 100 572
324 715 608 90 178 116 289 135 570 22 314 26 352 35 348 22 -8 1210 -693
1210 -698 0 -3 -1624 -780 -3609 -1728 l-3609 -1723 -4028 2009 c-2216 1105
-4073 2031 -4128 2058 l-98 50 153 59 c85 32 210 79 279 106 69 26 799 303
1622 614 l1498 566 1907 -1544 c1050 -849 1918 -1549 1930 -1555 12 -7 32 -12
45 -12 17 0 363 340 1385 1362 750 750 1363 1361 1364 1358 0 -3 25 -625 54
-1383 29 -757 56 -1395 60 -1417 8 -49 54 -118 98 -148 19 -13 207 -82 418
-154 306 -104 395 -130 439 -131 143 0 252 109 251 251 0 71 -16 115 -61 166
-46 51 -69 62 -375 165 -148 51 -270 93 -272 95 -2 1 -23 536 -48 1187 -50
1349 -55 1441 -78 1485 -41 80 -131 144 -202 144 -27 0 -1 29 290 320 176 176
321 320 323 320 2 0 175 -111 385 -246z m-887 145 c-14 -11 -39 -22 -53 -24
-15 -1 -29 -7 -30 -12 -2 -6 -10 -19 -18 -29 -13 -18 -15 -18 -31 -2 -16 16
-14 18 42 43 32 14 68 29 79 34 34 16 39 12 11 -10z m-192 -84 c3 -10 -1 -15
-14 -15 -23 0 -35 16 -18 23 21 9 26 8 32 -8z m166 -10 c0 -2 -10 -9 -22 -15
-22 -11 -22 -10 -4 4 21 17 26 19 26 11z m-6664 -3774 c2150 -1073 3992 -1992
4094 -2044 l185 -95 3 -727 c2 -581 0 -726 -10 -722 -75 30 -7416 3442 -7424
3451 -6 6 -174 457 -374 1001 -199 545 -371 1011 -381 1038 -10 26 -15 47 -10
47 4 0 1767 -877 3917 -1949z m11704 576 l0 -723 -1782 -847 c-981 -465 -2609
-1238 -3618 -1717 -1009 -480 -1841 -874 -1847 -877 -10 -4 -13 144 -13 721
l0 726 148 70 c1084 517 7099 3369 7105 3369 4 1 7 -324 7 -722z"/>
<path d="M8513 12537 c-221 -245 -279 -315 -269 -324 18 -19 1480 -1123 1486
-1122 12 2 594 646 591 654 -2 8 -760 555 -1501 1085 l-26 18 -281 -311z"/>
<path d="M7848 11799 l-308 -341 68 -52 c521 -401 1414 -1077 1420 -1074 18 7
622 672 619 681 -3 9 -1478 1127 -1487 1127 -3 0 -143 -154 -312 -341z"/>
<path d="M7153 11029 c-175 -194 -322 -358 -327 -366 -5 -10 -3 -20 5 -28 33
-30 1450 -1105 1457 -1105 10 0 651 696 657 713 3 9 -1009 790 -1450 1120
l-24 18 -318 -352z"/>
<path d="M6430 10229 c-168 -187 -306 -344 -308 -348 -2 -6 1404 -1100 1445
-1124 7 -4 119 110 289 295 154 167 298 324 321 349 l43 46 -731 557 c-402
306 -736 559 -742 561 -7 2 -149 -149 -317 -336z"/>
<path d="M3260 6616 c-101 -38 -878 -402 -898 -420 -104 -93 -41 -266 96 -266
35 0 80 16 189 65 79 36 149 65 156 65 6 0 143 -61 302 -136 l290 -136 60
-166 c65 -182 92 -224 155 -243 96 -29 200 47 200 146 0 30 -352 1006 -375
1042 -31 47 -117 71 -175 49z m13 -492 l44 -122 -61 28 c-34 15 -106 49 -161
75 l-100 47 110 53 c61 29 113 50 117 46 4 -3 26 -61 51 -127z"/>
<path d="M4565 6146 c-48 -24 -61 -42 -294 -387 -134 -199 -247 -376 -253
-395 -18 -65 17 -141 80 -173 20 -11 46 -34 57 -51 54 -83 282 -170 450 -170
64 0 211 38 275 70 119 61 231 284 229 458 -1 168 -13 237 -58 327 -30 62 -55
95 -92 127 -28 24 -69 59 -92 79 -55 47 -184 125 -222 133 -22 5 -44 0 -80
-18z m196 -333 c75 -56 104 -121 112 -245 7 -109 -8 -179 -56 -261 -35 -59
-43 -64 -133 -88 -76 -20 -81 -20 -164 -4 -50 10 -106 29 -137 47 l-53 29 188
279 c103 154 188 279 190 280 1 0 25 -17 53 -37z"/>
<path d="M5825 5611 c-19 -9 -737 -672 -779 -720 -30 -33 -33 -126 -7 -169 39
-62 124 -89 194 -63 13 5 68 50 122 101 76 70 104 90 119 86 12 -3 183 -70
381 -150 l360 -144 101 -182 c55 -101 114 -195 131 -210 94 -84 246 -13 248
114 0 48 -17 82 -334 661 -184 337 -349 625 -367 644 -29 31 -40 35 -91 38
-32 1 -67 -1 -78 -6z m147 -613 c64 -117 115 -215 113 -217 -2 -1 -115 41
-251 95 l-247 98 124 117 c68 65 129 118 134 119 6 0 63 -96 127 -212z"/>
</g>
</svg>
